{"title":"Formula 1 2011 Race 18 Abu Dharbi Qualifying HD 1080 H264 AC3","uid":6814286,"size":3090518210,"categoryP":"video","categoryS":"hd___tv_shows","magnet":"?xt=urn:btih:2c887bb6cc5aa55f3114749776cf4762bdb92759&amp;dn=Formula+1+2011+Race+18+Abu+Dharbi+Qualifying+HD+1080+H264+AC3&amp;tr=udp%3A%2F%2Ftracker.openbittorrent.com%3A80&amp;tr=udp%3A%2F%2Fopen.demonii.com%3A1337&amp;tr=udp%3A%2F%2Ftracker.coppersurfer.tk%3A6969&amp;tr=udp%3A%2F%2Fexodus.desync.com%3A6969","seeders":0,"leechers":2,"uploader":"jorrell0733","files":3,"time":1321138012,"description":"[img]http://www.khaolaknews.com/wp-content/uploads/2011/03/f1.jpg[/img]\n\nFormula One 2011 Season\n\nRace 17: Abu Dharbi Grand Prix \n\nRecord Source: BBC One HD\nOriginal Format: MPEG TS Stream\nDate: Saturday 12th October 2011\nTime: 12:10 to 14:30\n\nAbu Dharbi Grand Prix Qualifying HD\n\nJake Humphrey, Martin Brundle &amp; David Coulthard present the BBC F1 High\nDefinition coverage of the Qualifying Session for the 18th Race meeting \nof the 2011 Formula One Season, The Abu Dharbi Grand Prix from the Yas Marina Curcuit\n\nEnjoy, TheBlackKnight\n\n\n\nComplete name                    : F1 2011 Race 18 Abu Dharbi Qualifing HD 1080 H264 AC3                      \nFormat                           : Matroska\nFormat version                   : Version 2\nFile size                        : 2.88 GiB\nDuration                         : 2h 11mn\nOverall bit rate                 : 3 124 Kbps\nWriting application              : HandBrake 0.9.5\nWriting library                  : libmkv 0.6.4.1\n\nVideo\nID                               : 1\nFormat                           : AVC\nFormat/Info                      : Advanced Video Codec\nFormat profile                   : &lt;a class=&quot;__cf_email__&quot; href=&quot;/cdn-cgi/l/email-protection&quot; data-cfemail=&quot;b2ffd3dbdcf2fe869c82&quot;&gt;[email&amp;#160;protected]&lt;/a&gt;&lt;script cf-hash='f9e31' type=&quot;text/javascript&quot;&gt;\n/* &lt;![CDATA[ */!function(){try{var t=&quot;currentScript&quot;in document?document.currentScript:function(){for(var t=document.getElementsByTagName(&quot;script&quot;),e=t.length;e--;)if(t[e].getAttribute(&quot;cf-hash&quot;))return t[e]}();if(t&amp;&amp;t.previousSibling){var e,r,n,i,c=t.previousSibling,a=c.getAttribute(&quot;data-cfemail&quot;);if(a){for(e=&quot;&quot;,r=parseInt(a.substr(0,2),16),n=2;a.length-n;n+=2)i=parseInt(a.substr(n,2),16)^r,e+=String.fromCharCode(i);e=document.createTextNode(e),c.parentNode.replaceChild(e,c)}}}catch(u){}}();/* ]]&gt; */&lt;/script&gt;\nFormat settings, CABAC           : Yes\nFormat settings, ReFrames        : 4 frames\nCodec ID                         : V_MPEG4/ISO/AVC\nDuration                         : 2h 11mn\nBit rate                         : 3 000 Kbps\nWidth                            : 1 440 pixels\nHeight                           : 1 078 pixels\nDisplay aspect ratio             : 16:9\nFrame rate mode                  : Variable\nFrame rate                       : 25.000 fps\nColor space                      : YUV\nChroma subsampling               : 4:2:0\nBit depth                        : 8 bits\nScan type                        : Progressive\nBits/(Pixel*Frame)               : 0.077\nStream size                      : 2.70 GiB (94%)\nWriting library                  : x264 core 112\nLanguage                         : English\nColor primaries                  : BT.709-5, BT.1361, IEC 61966-2-4, SMPTE RP177\nTransfer characteristics         : BT.709-5, BT.1361\nMatrix coefficients              : BT.709-5, BT.1361, IEC 61966-2-4 709, SMPTE RP177\n\nAudio\nID                               : 2\nFormat                           : AC-3\nFormat/Info                      : Audio Coding 3\nMode extension                   : CM (complete main)\nCodec ID                         : A_AC3\nDuration                         : 2h 11mn\nBit rate mode                    : Constant\nBit rate                         : 128 Kbps\nChannel(s)                       : 2 channels\nChannel positions                : Front: L R\nSampling rate                    : 48.0 KHz\nBit depth                        : 16 bits\nCompression mode                 : Lossy\nStream size                      : 121 MiB (4%)\nLanguage                         : English\n\n ","torrent":{"xt":"urn:btih:2c887bb6cc5aa55f3114749776cf4762bdb92759","amp;dn":"Formula+1+2011+Race+18+Abu+Dharbi+Qualifying+HD+1080+H264+AC3","amp;tr":["udp%3A%2F%2Ftracker.openbittorrent.com%3A80","udp%3A%2F%2Fopen.demonii.com%3A1337","udp%3A%2F%2Ftracker.coppersurfer.tk%3A6969","udp%3A%2F%2Fexodus.desync.com%3A6969"],"infoHash":"2c887bb6cc5aa55f3114749776cf4762bdb92759","infoHashBuffer":{"type":"Buffer","data":[44,136,123,182,204,90,165,95,49,20,116,151,118,207,71,98,189,185,39,89]},"announce":[],"urlList":[]}}